<?xml version="1.0" encoding="UTF-8"?>
<svg width="68px" height="30px" viewBox="0 0 68 30" version="1.1" xmlns="http://www.w3.org/2000/svg" xmlns:xlink="http://www.w3.org/1999/xlink">
    <!-- Generator: Sketch 55.2 (78181) - https://sketchapp.com -->
    <title>Group 10</title>
    <desc>Created with Sketch.</desc>
    <defs>
        <polygon id="path-1" points="0.0496302745 0.0481597746 20.1514135 0.0481597746 20.1514135 19.8591549 0.0496302745 19.8591549"></polygon>
        <polygon id="path-3" points="0 29.6830986 68 29.6830986 68 0.105633803 0 0.105633803"></polygon>
    </defs>
    <g id="Page-1" stroke="none" stroke-width="1" fill="none" fill-rule="evenodd">
        <g id="CC-Get-Offer" transform="translate(-16.000000, -16.000000)">
            <g id="Group-10" transform="translate(16.000000, 16.000000)">
                <path d="M0,21.215366 L5.7284816,21.215366 C5.76973924,23.2623241 7.74790643,24.9408 10.3854448,24.9408 C12.9406288,24.9408 14.6303144,23.6307532 14.6303144,21.6247257 C14.6303144,20.069095 13.4764417,18.9637547 11.0448696,18.2268434 L7.58303681,17.2443482 C1.36005365,15.6067497 0.247277605,11.8813157 0.247277605,9.34313668 C0.247277605,4.30765589 4.6157592,0.950704225 10.0557592,0.950704225 C15.4133512,0.950704225 19.5345552,4.18486398 19.5345552,9.54784315 L13.8060736,9.54784315 C13.8060736,7.54181565 12.4048696,5.98618502 9.93214722,5.98618502 C7.70670243,5.98618502 6.01696319,7.33710917 6.01696319,9.22029148 C6.01696319,9.91627217 6.22303681,11.3900948 9.19031441,12.2088141 L12.3636656,13.1095013 C16.6497392,14.2967029 20.4,16.5483675 20.4,21.3382112 C20.4,26.9468275 15.5782208,29.8943662 10.2206288,29.8943662 C4.16246164,29.8943662 0,26.2099162 0,21.215366" id="Fill-1" fill="#FFFFFF"></path>
                <g id="Group-5" transform="translate(21.037500, 9.823944)">
                    <mask id="mask-2" fill="white">
                        <use xlink:href="#path-1"></use>
                    </mask>
                    <g id="Clip-4"></g>
                    <path d="M14.777266,8.26545442 C14.6132025,6.02809555 12.7260985,4.68566963 10.305628,4.68566963 C8.13141285,4.68566963 6.20323957,5.7026702 5.62891053,8.26545442 L14.777266,8.26545442 Z M20.0693818,11.7232246 L5.62891053,11.7232246 C6.20323957,13.9199119 8.00831182,15.1403232 10.5927925,15.1403232 C12.5209658,15.1403232 14.4490322,14.3674048 15.5976903,13.0249789 L18.7566068,16.1572708 C16.9515879,18.5574217 13.5875921,19.8591761 10.2235962,19.8591761 C4.35715144,19.8591761 0.0496302745,15.8725699 0.0496302745,10.0147017 C0.0496302745,3.87207977 4.72640111,0.0481597746 10.2235962,0.0481597746 C15.6797754,0.0481597746 20.1514135,3.87207977 20.1514135,9.68922344 C20.1514135,10.2181125 20.1103442,10.8689632 20.0693818,11.7232246 L20.0693818,11.7232246 Z" id="Fill-3" fill="#FFFFFF" mask="url(#mask-2)"></path>
                </g>
                <mask id="mask-4" fill="white">
                    <use xlink:href="#path-3"></use>
                </mask>
                <g id="Clip-7"></g>
                <polygon id="Fill-6" fill="#FFFFFF" mask="url(#mask-4)" points="42.5 29.471831 47.8125 29.471831 47.8125 0.316901408 42.5 0.316901408"></polygon>
                <path d="M58.0216727,9.24685235 L58.0216727,10.4701588 L62.1827498,10.4701588 L62.1827498,14.5885263 L58.0216727,14.5885263 L58.0216727,29.471831 L52.6775051,29.471831 L52.6775051,14.5885263 L49.0875,14.5885263 L49.0875,10.4701588 L52.6775051,10.4701588 L52.6775051,9.28767347 C52.6775051,3.57898104 55.6147579,0.316901408 61.0404996,0.316901408 L63.325,0.316901408 L63.325,5.29161 L62.1011757,5.29161 C59.0415086,5.29161 58.0624597,6.96341785 58.0216727,9.24685235" id="Fill-8" fill="#FFFFFF" mask="url(#mask-4)"></path>
                <path d="M61.2,26.1768476 C61.2,24.3056127 62.7381134,22.9225352 64.559558,22.9225352 C66.4214709,22.9225352 68,24.3056127 68,26.1768476 C68,28.0887535 66.4214709,29.471831 64.559558,29.471831 C62.7381134,29.471831 61.2,28.0887535 61.2,26.1768476" id="Fill-9" fill="#0BD1FF" mask="url(#mask-4)"></path>
            </g>
        </g>
    </g>
</svg>